<?xml version="1.0" encoding="UTF-8"?><svg id="Layer_1" xmlns="http://www.w3.org/2000/svg" xmlns:xlink="http://www.w3.org/1999/xlink" viewBox="0 0 98.15 56.76"><defs><style>.cls-1{fill:url(#linear-gradient);}.cls-2{fill:#035272;}.cls-3{fill:#8e8070;}.cls-4{fill:#76777a;}.cls-5{fill:url(#linear-gradient-2);}</style><linearGradient id="linear-gradient" x1="1235.47" y1="3095.99" x2="1235.47" y2="3072.8" gradientTransform="translate(1383.56 -3022.15) rotate(45)" gradientUnits="userSpaceOnUse"><stop offset="0" stop-color="#057a70"/><stop offset="0" stop-color="#057a70"/><stop offset="1" stop-color="#c5d12e"/><stop offset="1" stop-color="#c5d12e"/></linearGradient><linearGradient id="linear-gradient-2" x1="1235.47" y1="3096.07" x2="1235.47" y2="3061.29" xlink:href="#linear-gradient"/></defs><polygon class="cls-3" points="84.31 40.54 84.31 8.11 76.2 0 76.2 48.65 76.2 48.65 84.31 56.76 84.31 40.54 84.31 40.54"/><polygon class="cls-2" points="76.2 48.65 76.2 16.22 84.31 8.11 84.31 40.54 76.2 48.65"/><path class="cls-1" d="m64.04,36.49l12.16,12.16V16.22l-12.16,12.16c-2.24,2.24-2.24,5.87,0,8.11Z"/><path class="cls-5" d="m96.48,20.27l-12.16-12.16v32.43l12.16-12.16c2.24-2.24,2.24-5.87,0-8.11Z"/><path class="cls-2" d="m7.03,6.79H1.82v2.85h4.5c2.51,0,3.57,1.15,3.57,3.44v4.75H0v2.85h12.96v-7.79c0-3.91-1.8-6.11-5.93-6.11"/><path class="cls-2" d="m5.79,3.97c.93,0,1.68-.78,1.68-1.68s-.74-1.71-1.68-1.71-1.67.77-1.67,1.71.78,1.68,1.67,1.68"/><path class="cls-2" d="m32.75,3.97c.93,0,1.67-.78,1.67-1.68s-.74-1.71-1.67-1.71-1.67.77-1.67,1.71.77,1.68,1.67,1.68"/><path class="cls-2" d="m46.68.59c-.9,0-1.67.78-1.67,1.71s.77,1.67,1.67,1.67,1.67-.77,1.67-1.67-.74-1.71-1.67-1.71"/><path class="cls-2" d="m45.16,17.84h-6.42V6.79h-6.67c-4.19,0-6.02,2.33-6.02,6.3v4.75h-4.25c-1.49,0-2.17-.62-2.17-2.23V0h-3.07v15.26c0,3.79,1.27,5.43,5.4,5.43h26.25V6.79h-3.04v11.04m-9.52,0h-6.51v-4.47c0-2.48,1.05-3.72,3.6-3.72h2.92v8.19Z"/><rect class="cls-2" x="52.42" width="3.07" height="20.69"/><polyline class="cls-2" points="55.49 22.58 52.42 25.45 52.42 28.18 55.49 25.32 55.49 22.58"/><path class="cls-3" d="m10.94,30.05h-5.32v10.65h2.45v-8.65h2.49c1.66,0,2.34.68,2.34,2.34v6.31h2.45v-6.25c0-3.04-1.36-4.4-4.4-4.4"/><path class="cls-3" d="m18.75,29.32v.73h-1.67v1.96h1.67v8.69h2.45v-8.69h3.24v-1.96h-3.24v-.66c0-.93.33-1.26,1.26-1.26h2.06v-1.94h-2.64c-2.23,0-3.14.91-3.14,3.13"/><path class="cls-3" d="m30.68,30.05h-4.98v1.96h4.94c1.28,0,1.71.44,1.71,1.74v.25h-3.95c-2.1,0-3.35,1.25-3.35,3.35s1.25,3.35,3.35,3.35h6.4v-6.52c0-2.93-1.19-4.12-4.12-4.12m1.69,5.88v2.83h-3.41c-.94,0-1.41-.48-1.41-1.41s.48-1.41,1.41-1.41h3.41Z"/><path class="cls-3" d="m40.28,27.3h-2.45v2.75h-1.67v1.96h1.67v5.55c0,2.23.91,3.13,3.14,3.13h2.92v-1.96h-2.34c-.93,0-1.26-.33-1.26-1.26v-5.47h3.65v-1.96h-3.65v-2.75"/><path class="cls-3" d="m51.09,30.05h-2.87v-3.86h-2.45v14.51h2.45v-8.65h2.49c1.66,0,2.34.68,2.34,2.34v6.31h2.45v-6.25c0-3.04-1.36-4.4-4.4-4.4"/><rect class="cls-3" x="0" y="30.07" width="2.47" height="10.63"/><polyline class="cls-3" points="2.49 23.87 0 26.19 0 28.56 2.49 26.24 2.49 23.87"/><path class="cls-4" d="m3.92,50.89c-.18,0-.34.16-.34.35,0,.18.16.34.34.34s.34-.16.34-.34c0-.2-.15-.35-.34-.35"/><path class="cls-4" d="m4.8,50.89c-.19,0-.35.16-.35.35,0,.18.16.34.35.34s.34-.16.34-.34c0-.2-.16-.35-.34-.35"/><path class="cls-4" d="m.99,47.07c.19,0,.34-.16.34-.34s-.15-.35-.34-.35-.34.16-.34.35.16.34.34.34"/><path class="cls-4" d="m1.87,47.07c.18,0,.34-.16.34-.34s-.16-.35-.34-.35-.35.16-.35.35.16.34.35.34"/><rect class="cls-4" x="38.2" y="46.78" width=".63" height="2.65"/><path class="cls-4" d="m7.41,47.08c.19,0,.34-.16.34-.34s-.15-.35-.34-.35-.34.16-.34.35.16.34.34.34"/><path class="cls-4" d="m44.92,47.08c.19,0,.34-.16.34-.34s-.15-.35-.34-.35-.34.16-.34.35.16.34.34.34"/><path class="cls-4" d="m31.22,47.08c.19,0,.34-.16.34-.34s-.15-.35-.34-.35-.34.16-.34.35.16.34.34.34"/><path class="cls-4" d="m15.59,47.07c.19,0,.34-.16.34-.34s-.15-.35-.34-.35-.34.16-.34.35.16.34.34.34"/><path class="cls-4" d="m16.47,47.07c.18,0,.34-.16.34-.34s-.16-.35-.34-.35-.35.16-.35.35.16.34.35.34"/><rect class="cls-4" x="41.37" y="46.27" width=".63" height="4.22"/><path class="cls-4" d="m48.76,47.66h-1.68l1.81-1.2v-.68l-1.92,1.29c-.52.35-.69.56-.69.92v.25h2.34c.51,0,.73.23.73.7v.97h-4.07v-2.25h-.63v2.82c0,.46-.2.79-.7.79h-.19v.6h.24c.87,0,1.27-.52,1.27-1.37h4.69v-1.59c0-.8-.37-1.25-1.21-1.25"/><path class="cls-4" d="m39.88,49.3c0,.4-.19.61-.59.61h-2.12v.58h2.17c.75,0,1.17-.48,1.17-1.19v-3.04h-.63v3.04"/><path class="cls-4" d="m38.41,51.74c0-.17.06-.26.23-.26h.36v-.31h-.35c-.4,0-.56.16-.56.56v.34h-.29v.31h1.3v-.31h-.68v-.33"/><path class="cls-4" d="m54.26,47.66h-1.36v2.25h-1.2v-2.25h-.63v2.82c0,.46-.2.79-.7.79h-.19v.6h.24c.87,0,1.27-.52,1.27-1.37h3.79v-1.55c0-.81-.37-1.29-1.23-1.29m.6,2.25h-1.33v-1.67h.6c.52,0,.73.25.73.76v.91Z"/><rect class="cls-4" x="19.2" y="46.27" width=".63" height="4.22"/><path class="cls-4" d="m35.91,49.91h-.88v-2.05h-.63v2.05h-.88v-2.05h-.63v2.05h-1.37v-2.25h-.62v2.25h-.96c-.3,0-.44-.13-.44-.46v-3.19h-.63v3.12c0,.77.26,1.11,1.1,1.11h6.56v-2.84h-.63v2.25"/><path class="cls-4" d="m20.76,48.94v1.55h1.96c0,.55-.14.79-.69.79h-.83v.58h.93c.97,0,1.22-.61,1.22-1.5v-2.71h-1.36c-.85,0-1.23.47-1.23,1.29m1.96-.7v1.67h-1.33v-.91c0-.51.22-.76.73-.76h.6Z"/><path class="cls-4" d="m17.71,49.91h-1.41v-2.25h-.62v2.25h-1.51v-1.01c0-.8-.37-1.25-1.21-1.25h-3.08v2.25h-1.25v-2.25h-1.36c-.85,0-1.23.47-1.23,1.29v.97h-1.33v-2.25h-.62v2.25h-1.5v-2.25h-1.36c-.86,0-1.23.47-1.23,1.29v1.55h18.34v-4.22h-.63v3.64m-15.75,0H.63v-.91c0-.51.22-.76.73-.76h.6v1.67Zm6.04,0h-1.33v-.91c0-.51.22-.76.73-.76h.6v1.67Zm5.55,0h-3.04v-1.67h2.31c.51,0,.73.23.73.7v.97Z"/><path class="cls-4" d="m26.93,47.66h-1.06v.58h.92c.51,0,.73.23.73.7v.97h-2.11v.58h2.74v-1.59c0-.8-.37-1.25-1.21-1.25"/><path class="cls-4" d="m1.08,56.22c-.73,0-1.08-.36-1.08-1.13s.34-1.13,1.08-1.13h.62v.32h-.55c-.51,0-.7.2-.75.64h1.26v.32H.39c.03.46.24.66.75.66h.58v.32h-.65Z"/><path class="cls-4" d="m3.32,55.23c0-.27-.11-.38-.38-.38h-.41v1.37h-.36v-1.66h.83c.48,0,.68.21.68.68v.98h-.36v-.99Z"/><path class="cls-4" d="m4.74,56.22c-.34,0-.48-.14-.48-.48v-.89h-.27v-.28h.27v-.44h.36v.44h.58v.28h-.58v.88c0,.16.06.21.21.21h.36v.28h-.45Z"/><path class="cls-4" d="m6.19,54.56c.37,0,.53.16.53.53v.21h-.36v-.18c0-.18-.08-.27-.27-.27h-.22v1.37h-.36v-1.66h.68Z"/><path class="cls-4" d="m7.73,56.22c-.48,0-.68-.21-.68-.68v-.98h.36v.99c0,.27.11.38.38.38h.39v-1.37h.36v1.66h-.81Z"/><path class="cls-4" d="m9.76,55.93c.14,0,.21-.06.21-.2s-.07-.2-.21-.2h-.32c-.31,0-.49-.17-.49-.49s.18-.48.49-.48h.82v.28h-.72c-.14,0-.21.06-.21.2s.07.2.21.2h.31c.32,0,.49.17.49.49s-.17.49-.49.49h-.91v-.28h.82Z"/><path class="cls-4" d="m11.32,56.22c-.34,0-.48-.14-.48-.48v-.89h-.27v-.28h.27v-.44h.36v.44h.58v.28h-.58v.88c0,.16.06.21.21.21h.36v.28h-.45Z"/><path class="cls-4" d="m14.03,55.22c0-.27-.11-.37-.37-.37h-.23v1.37h-.36v-1.37h-.6v1.37h-.36v-1.66h1.61c.48,0,.68.21.68.68v.98h-.36v-1Z"/><path class="cls-4" d="m15.58,56.22c-.55,0-.83-.28-.83-.83s.28-.83.83-.83h.53v.28h-.49c-.32,0-.47.12-.49.39h.97v.28h-.97c0,.27.14.43.49.43h.51v.28h-.54Z"/><path class="cls-4" d="m17.71,55.23c0-.27-.11-.38-.38-.38h-.41v1.37h-.36v-1.66h.83c.48,0,.68.21.68.68v.98h-.36v-.99Z"/><path class="cls-4" d="m19.14,56.22c-.34,0-.48-.14-.48-.48v-.89h-.27v-.28h.27v-.44h.36v.44h.58v.28h-.58v.88c0,.16.06.21.21.21h.36v.28h-.45Z"/><path class="cls-4" d="m21.09,56.22c-.33,0-.52-.19-.52-.52s.19-.52.52-.52h.64v-.05c0-.21-.07-.29-.29-.29h-.77v-.28h.78c.46,0,.64.18.64.64v1.02h-1Zm.09-.76c-.16,0-.24.08-.24.24s.08.24.24.24h.55v-.48h-.55Z"/><path class="cls-4" d="m23.71,55.23c0-.27-.11-.38-.38-.38h-.41v1.37h-.36v-1.66h.83c.48,0,.68.21.68.68v.98h-.36v-.99Z"/><path class="cls-4" d="m25.26,56.22c-.55,0-.83-.28-.83-.83s.28-.83.83-.83h.39v-.6h.36v2.26h-.75Zm.09-1.38c-.38,0-.55.17-.55.55s.17.55.55.55h.3v-1.1h-.3Z"/><path class="cls-4" d="m28.15,56.22c-.57,0-.85-.28-.85-.85v-1.41h.37v1.37c0,.42.16.57.57.57h.54v.32h-.63Z"/><path class="cls-4" d="m29.46,53.96v.39h-.36v-.39h.36Zm0,.6v1.66h-.36v-1.66h.36Z"/><path class="cls-4" d="m30.68,56.22c-.55,0-.83-.28-.83-.83s.28-.83.83-.83h.75v2.2h-.36v-.54h-.39Zm.09-1.38c-.38,0-.55.17-.55.55s.17.55.55.55h.3v-1.1h-.3Z"/><path class="cls-4" d="m32.58,56.22c-.48,0-.68-.21-.68-.68v-.98h.36v.99c0,.27.11.38.38.38h.39v-1.37h.36v1.66h-.81Z"/><path class="cls-4" d="m34.24,53.96v.39h-.36v-.39h.36Zm0,.6v1.66h-.36v-1.66h.36Z"/><path class="cls-4" d="m35.45,56.22c-.55,0-.83-.28-.83-.83s.28-.83.83-.83h.39v-.6h.36v2.26h-.75Zm.09-1.38c-.38,0-.55.17-.55.55s.17.55.55.55h.3v-1.1h-.3Z"/><path class="cls-4" d="m37.11,56.22c-.33,0-.52-.19-.52-.52s.19-.52.52-.52h.64v-.05c0-.21-.07-.29-.29-.29h-.77v-.28h.78c.46,0,.64.18.64.64v1.02h-1Zm.09-.76c-.16,0-.24.08-.24.24s.08.24.24.24h.55v-.48h-.55Z"/><path class="cls-4" d="m39.17,56.22c-.34,0-.48-.14-.48-.48v-.89h-.27v-.28h.27v-.44h.36v.44h.58v.28h-.58v.88c0,.16.06.21.21.21h.36v.28h-.45Z"/><path class="cls-4" d="m40.31,53.96v.39h-.36v-.39h.36Zm0,.6v1.66h-.36v-1.66h.36Z"/><path class="cls-4" d="m41.55,56.25c-.54,0-.86-.28-.86-.86s.32-.86.86-.86.86.28.86.86-.32.86-.86.86Zm.5-.86c0-.38-.16-.57-.5-.57s-.5.19-.5.57.16.57.5.57.5-.19.5-.57Z"/><path class="cls-4" d="m43.95,55.23c0-.27-.11-.38-.38-.38h-.41v1.37h-.36v-1.66h.83c.48,0,.68.21.68.68v.98h-.36v-.99Z"/><path class="cls-4" d="m46.53,56.22c-.72,0-1.07-.36-1.07-1.13s.35-1.13,1.07-1.13h.64v.32h-.56c-.56,0-.76.23-.76.81s.2.81.76.81h.57v.32h-.65Z"/><path class="cls-4" d="m48.26,56.22c-.55,0-.83-.28-.83-.83s.28-.83.83-.83h.53v.28h-.49c-.32,0-.47.12-.49.39h.97v.28h-.97c0,.27.14.43.49.43h.51v.28h-.54Z"/><path class="cls-4" d="m50.39,55.23c0-.27-.11-.38-.38-.38h-.41v1.37h-.36v-1.66h.83c.48,0,.68.21.68.68v.98h-.36v-.99Z"/><path class="cls-4" d="m51.81,56.22c-.34,0-.48-.14-.48-.48v-.89h-.27v-.28h.27v-.44h.36v.44h.58v.28h-.58v.88c0,.16.06.21.21.21h.36v.28h-.45Z"/><path class="cls-4" d="m53.31,56.22c-.55,0-.83-.28-.83-.83s.28-.83.83-.83h.53v.28h-.49c-.32,0-.47.12-.49.39h.97v.28h-.97c0,.27.14.43.49.43h.51v.28h-.54Z"/><path class="cls-4" d="m54.96,54.56c.37,0,.53.16.53.53v.21h-.36v-.18c0-.18-.08-.27-.27-.27h-.22v1.37h-.36v-1.66h.68Z"/></svg>